<?xml version="1.0" encoding="utf-8"?>
<!-- Generator: Adobe Illustrator 14.0.0, SVG Export Plug-In . SVG Version: 6.00 Build 43363)  -->
<!DOCTYPE svg PUBLIC "-//W3C//DTD SVG 1.1//EN" "http://www.w3.org/Graphics/SVG/1.1/DTD/svg11.dtd">
<svg version="1.1" id="Layer_1" xmlns="http://www.w3.org/2000/svg" xmlns:xlink="http://www.w3.org/1999/xlink" x="0px" y="0px"
	 width="100px" height="100px" viewBox="0 0 100 100" enable-background="new 0 0 100 100" xml:space="preserve">
<g>
	<defs>
		<circle id="SVGID_1_" cx="50" cy="50" r="50"/>
	</defs>
	<clipPath id="SVGID_2_">
		<use xlink:href="#SVGID_1_"  overflow="visible"/>
	</clipPath>
	<g clip-path="url(#SVGID_2_)">
		<rect x="67.572" y="-1.678" fill="#BE2033" width="122.711" height="8.291"/>
		<rect x="67.572" y="14.62" fill="#BE2033" width="122.711" height="8.292"/>
		<rect x="67.572" y="30.966" fill="#BE2033" width="122.711" height="8.292"/>
		<rect x="67.572" y="47.027" fill="#BE2033" width="122.711" height="8.293"/>
		<rect x="-14.392" y="63.088" fill="#BE2033" width="204.675" height="8.291"/>
		<rect x="-14.392" y="80.287" fill="#BE2033" width="204.675" height="8.291"/>
		<rect x="-14.392" y="97.826" fill="#BE2033" width="204.675" height="8.291"/>
		<rect x="-14.392" y="-1.678" fill="#222F64" width="82.154" height="56.809"/>
		<polygon fill="#FFFFFF" points="-10.673,3.132 -8.281,3.132 -7.404,0.62 -6.433,3.132 -4.064,3.132 -5.864,4.778 -5.201,7.277 
			-7.369,5.879 -9.394,7.277 -8.802,4.778 		"/>
		<polygon fill="#FFFFFF" points="2.783,3.132 5.175,3.132 6.052,0.62 7.023,3.132 9.392,3.132 7.591,4.778 8.254,7.277 
			6.087,5.879 4.062,7.277 4.654,4.778 		"/>
		<polygon fill="#FFFFFF" points="16.711,3.132 19.104,3.132 19.981,0.62 20.952,3.132 23.321,3.132 21.521,4.778 22.184,7.277 
			20.016,5.879 17.991,7.277 18.583,4.778 		"/>
		<polygon fill="#FFFFFF" points="30.167,3.132 32.56,3.132 33.436,0.62 34.408,3.132 36.776,3.132 34.976,4.778 35.639,7.277 
			33.472,5.879 31.446,7.277 32.039,4.778 		"/>
		<polygon fill="#FFFFFF" points="43.717,3.132 46.109,3.132 46.986,0.62 47.957,3.132 50.326,3.132 48.526,4.778 49.189,7.277 
			47.021,5.879 44.996,7.277 45.588,4.778 		"/>
		<polygon fill="#FFFFFF" points="57.552,3.132 59.944,3.132 60.82,0.62 61.792,3.132 64.161,3.132 62.36,4.778 63.023,7.277 
			60.856,5.879 58.831,7.277 59.424,4.778 		"/>
		<polygon fill="#FFFFFF" points="-3.946,9.125 -1.553,9.125 -0.676,6.613 0.294,9.125 2.664,9.125 0.863,10.771 1.526,13.27 
			-0.641,11.872 -2.667,13.27 -2.074,10.771 		"/>
		<polygon fill="#FFFFFF" points="9.51,9.125 11.902,9.125 12.779,6.613 13.75,9.125 16.12,9.125 14.319,10.771 14.982,13.27 
			12.815,11.872 10.79,13.27 11.381,10.771 		"/>
		<polygon fill="#FFFFFF" points="23.439,9.125 25.832,9.125 26.708,6.613 27.679,9.125 30.049,9.125 28.248,10.771 28.912,13.27 
			26.744,11.872 24.718,13.27 25.311,10.771 		"/>
		<polygon fill="#FFFFFF" points="36.895,9.125 39.287,9.125 40.164,6.613 41.135,9.125 43.504,9.125 41.703,10.771 42.367,13.27 
			40.199,11.872 38.174,13.27 38.766,10.771 		"/>
		<polygon fill="#FFFFFF" points="50.445,9.125 52.838,9.125 53.715,6.613 54.686,9.125 57.055,9.125 55.254,10.771 55.917,13.27 
			53.75,11.872 51.725,13.27 52.316,10.771 		"/>
		<polygon fill="#FFFFFF" points="-10.673,14.407 -8.281,14.407 -7.404,11.896 -6.433,14.407 -4.064,14.407 -5.864,16.054 
			-5.201,18.553 -7.369,17.155 -9.394,18.553 -8.802,16.054 		"/>
		<polygon fill="#FFFFFF" points="2.783,14.407 5.175,14.407 6.052,11.896 7.023,14.407 9.392,14.407 7.591,16.054 8.254,18.553 
			6.087,17.155 4.062,18.553 4.654,16.054 		"/>
		<polygon fill="#FFFFFF" points="16.711,14.407 19.104,14.407 19.981,11.896 20.952,14.407 23.321,14.407 21.521,16.054 
			22.184,18.553 20.016,17.155 17.991,18.553 18.583,16.054 		"/>
		<polygon fill="#FFFFFF" points="30.167,14.407 32.56,14.407 33.436,11.896 34.408,14.407 36.776,14.407 34.976,16.054 
			35.639,18.553 33.472,17.155 31.446,18.553 32.039,16.054 		"/>
		<polygon fill="#FFFFFF" points="43.717,14.407 46.109,14.407 46.986,11.896 47.957,14.407 50.326,14.407 48.526,16.054 
			49.189,18.553 47.021,17.155 44.996,18.553 45.588,16.054 		"/>
		<polygon fill="#FFFFFF" points="57.552,14.407 59.944,14.407 60.82,11.896 61.792,14.407 64.161,14.407 62.36,16.054 
			63.023,18.553 60.856,17.155 58.831,18.553 59.424,16.054 		"/>
		<polygon fill="#FFFFFF" points="-3.946,20.4 -1.553,20.4 -0.676,17.89 0.294,20.4 2.664,20.4 0.863,22.048 1.526,24.546 
			-0.641,23.148 -2.667,24.546 -2.074,22.048 		"/>
		<polygon fill="#FFFFFF" points="9.51,20.4 11.902,20.4 12.779,17.89 13.75,20.4 16.12,20.4 14.319,22.048 14.982,24.546 
			12.815,23.148 10.79,24.546 11.381,22.048 		"/>
		<polygon fill="#FFFFFF" points="23.439,20.4 25.832,20.4 26.708,17.89 27.679,20.4 30.049,20.4 28.248,22.048 28.912,24.546 
			26.744,23.148 24.718,24.546 25.311,22.048 		"/>
		<polygon fill="#FFFFFF" points="36.895,20.4 39.287,20.4 40.164,17.89 41.135,20.4 43.504,20.4 41.703,22.048 42.367,24.546 
			40.199,23.148 38.174,24.546 38.766,22.048 		"/>
		<polygon fill="#FFFFFF" points="50.445,20.4 52.838,20.4 53.715,17.89 54.686,20.4 57.055,20.4 55.254,22.048 55.917,24.546 
			53.75,23.148 51.725,24.546 52.316,22.048 		"/>
		<polygon fill="#FFFFFF" points="-10.673,25.873 -8.281,25.873 -7.404,23.361 -6.433,25.873 -4.064,25.873 -5.864,27.52 
			-5.201,30.019 -7.369,28.621 -9.394,30.019 -8.802,27.52 		"/>
		<polygon fill="#FFFFFF" points="2.783,25.873 5.175,25.873 6.052,23.361 7.023,25.873 9.392,25.873 7.591,27.52 8.254,30.019 
			6.087,28.621 4.062,30.019 4.654,27.52 		"/>
		<polygon fill="#FFFFFF" points="16.711,25.873 19.104,25.873 19.981,23.361 20.952,25.873 23.321,25.873 21.521,27.52 
			22.184,30.019 20.016,28.621 17.991,30.019 18.583,27.52 		"/>
		<polygon fill="#FFFFFF" points="30.167,25.873 32.56,25.873 33.436,23.361 34.408,25.873 36.776,25.873 34.976,27.52 
			35.639,30.019 33.472,28.621 31.446,30.019 32.039,27.52 		"/>
		<polygon fill="#FFFFFF" points="43.717,25.873 46.109,25.873 46.986,23.361 47.957,25.873 50.326,25.873 48.526,27.52 
			49.189,30.019 47.021,28.621 44.996,30.019 45.588,27.52 		"/>
		<polygon fill="#FFFFFF" points="57.552,25.873 59.944,25.873 60.82,23.361 61.792,25.873 64.161,25.873 62.36,27.52 
			63.023,30.019 60.856,28.621 58.831,30.019 59.424,27.52 		"/>
		<polygon fill="#FFFFFF" points="-3.946,31.866 -1.553,31.866 -0.676,29.355 0.294,31.866 2.664,31.866 0.863,33.513 1.526,36.012 
			-0.641,34.614 -2.667,36.012 -2.074,33.513 		"/>
		<polygon fill="#FFFFFF" points="9.51,31.866 11.902,31.866 12.779,29.355 13.75,31.866 16.12,31.866 14.319,33.513 14.982,36.012 
			12.815,34.614 10.79,36.012 11.381,33.513 		"/>
		<polygon fill="#FFFFFF" points="23.439,31.866 25.832,31.866 26.708,29.355 27.679,31.866 30.049,31.866 28.248,33.513 
			28.912,36.012 26.744,34.614 24.718,36.012 25.311,33.513 		"/>
		<polygon fill="#FFFFFF" points="36.895,31.866 39.287,31.866 40.164,29.355 41.135,31.866 43.504,31.866 41.703,33.513 
			42.367,36.012 40.199,34.614 38.174,36.012 38.766,33.513 		"/>
		<polygon fill="#FFFFFF" points="50.445,31.866 52.838,31.866 53.715,29.355 54.686,31.866 57.055,31.866 55.254,33.513 
			55.917,36.012 53.75,34.614 51.725,36.012 52.316,33.513 		"/>
		<polygon fill="#FFFFFF" points="-10.673,37.173 -8.281,37.173 -7.404,34.662 -6.433,37.173 -4.064,37.173 -5.864,38.819 
			-5.201,41.318 -7.369,39.921 -9.394,41.318 -8.802,38.819 		"/>
		<polygon fill="#FFFFFF" points="2.783,37.173 5.175,37.173 6.052,34.662 7.023,37.173 9.392,37.173 7.591,38.819 8.254,41.318 
			6.087,39.921 4.062,41.318 4.654,38.819 		"/>
		<polygon fill="#FFFFFF" points="16.711,37.173 19.104,37.173 19.981,34.662 20.952,37.173 23.321,37.173 21.521,38.819 
			22.184,41.318 20.016,39.921 17.991,41.318 18.583,38.819 		"/>
		<polygon fill="#FFFFFF" points="30.167,37.173 32.56,37.173 33.436,34.662 34.408,37.173 36.776,37.173 34.976,38.819 
			35.639,41.318 33.472,39.921 31.446,41.318 32.039,38.819 		"/>
		<polygon fill="#FFFFFF" points="43.717,37.173 46.109,37.173 46.986,34.662 47.957,37.173 50.326,37.173 48.526,38.819 
			49.189,41.318 47.021,39.921 44.996,41.318 45.588,38.819 		"/>
		<polygon fill="#FFFFFF" points="57.552,37.173 59.944,37.173 60.82,34.662 61.792,37.173 64.161,37.173 62.36,38.819 
			63.023,41.318 60.856,39.921 58.831,41.318 59.424,38.819 		"/>
		<polygon fill="#FFFFFF" points="-10.673,48.354 -8.281,48.354 -7.404,45.844 -6.433,48.354 -4.064,48.354 -5.864,50 -5.201,52.5 
			-7.369,51.102 -9.394,52.5 -8.802,50 		"/>
		<polygon fill="#FFFFFF" points="2.783,48.354 5.175,48.354 6.052,45.844 7.023,48.354 9.392,48.354 7.591,50 8.254,52.5 
			6.087,51.102 4.062,52.5 4.654,50 		"/>
		<polygon fill="#FFFFFF" points="16.711,48.354 19.104,48.354 19.981,45.844 20.952,48.354 23.321,48.354 21.521,50 22.184,52.5 
			20.016,51.102 17.991,52.5 18.583,50 		"/>
		<polygon fill="#FFFFFF" points="30.167,48.354 32.56,48.354 33.436,45.844 34.408,48.354 36.776,48.354 34.976,50 35.639,52.5 
			33.472,51.102 31.446,52.5 32.039,50 		"/>
		<polygon fill="#FFFFFF" points="43.717,48.354 46.109,48.354 46.986,45.844 47.957,48.354 50.326,48.354 48.526,50 49.189,52.5 
			47.021,51.102 44.996,52.5 45.588,50 		"/>
		<polygon fill="#FFFFFF" points="57.552,48.354 59.944,48.354 60.82,45.844 61.792,48.354 64.161,48.354 62.36,50 63.023,52.5 
			60.856,51.102 58.831,52.5 59.424,50 		"/>
		<polygon fill="#FFFFFF" points="-3.946,43.166 -1.553,43.166 -0.676,40.655 0.294,43.166 2.664,43.166 0.863,44.813 1.526,47.313 
			-0.641,45.914 -2.667,47.313 -2.074,44.813 		"/>
		<polygon fill="#FFFFFF" points="9.51,43.166 11.902,43.166 12.779,40.655 13.75,43.166 16.12,43.166 14.319,44.813 14.982,47.313 
			12.815,45.914 10.79,47.313 11.381,44.813 		"/>
		<polygon fill="#FFFFFF" points="23.439,43.166 25.832,43.166 26.708,40.655 27.679,43.166 30.049,43.166 28.248,44.813 
			28.912,47.313 26.744,45.914 24.718,47.313 25.311,44.813 		"/>
		<polygon fill="#FFFFFF" points="36.895,43.166 39.287,43.166 40.164,40.655 41.135,43.166 43.504,43.166 41.703,44.813 
			42.367,47.313 40.199,45.914 38.174,47.313 38.766,44.813 		"/>
		<polygon fill="#FFFFFF" points="50.445,43.166 52.838,43.166 53.715,40.655 54.686,43.166 57.055,43.166 55.254,44.813 
			55.917,47.313 53.75,45.914 51.725,47.313 52.316,44.813 		"/>
	</g>
</g>
</svg>
